<?xml version="1.0" encoding="iso-8859-1"?>
<!-- Generator: Adobe Illustrator 26.0.1, SVG Export Plug-In . SVG Version: 6.00 Build 0)  -->
<svg version="1.1" id="Layer_1" xmlns="http://www.w3.org/2000/svg" xmlns:xlink="http://www.w3.org/1999/xlink" x="0px" y="0px"
	 viewBox="0 0 500 500" style="enable-background:new 0 0 500 500;" xml:space="preserve">
<g id="watermark_1_" style="display:none;">
	<g style="display:inline;">
		<g id="watermark" style="opacity:0.61;">
			<g>
				<g>
					<g>
						<g>
							<polygon style="fill:#FFFFFF;" points="213.765,461.172 208.204,474.017 205.268,474.017 199.726,461.172 202.938,461.172 
								206.846,470.347 210.81,461.172 							"/>
						</g>
						<g>
							<path style="fill:#FFFFFF;" d="M223.507,469.741h-7.469c0.275,1.23,1.321,1.982,2.826,1.982c1.046,0,1.798-0.312,2.477-0.954
								l1.523,1.651c-0.917,1.046-2.294,1.597-4.074,1.597c-3.413,0-5.634-2.147-5.634-5.083c0-2.954,2.257-5.083,5.267-5.083
								c2.899,0,5.138,1.945,5.138,5.12C223.562,469.191,223.526,469.503,223.507,469.741 M216.002,468.071h4.863
								c-0.202-1.248-1.138-2.055-2.422-2.055C217.139,466.016,216.204,466.805,216.002,468.071"/>
						</g>
						<g>
							<path style="fill:#FFFFFF;" d="M224.735,468.934c0-2.973,2.294-5.083,5.505-5.083c2.074,0,3.707,0.899,4.423,2.514
								l-2.22,1.193c-0.532-0.936-1.321-1.358-2.221-1.358c-1.45,0-2.587,1.009-2.587,2.734c0,1.725,1.138,2.734,2.587,2.734
								c0.899,0,1.688-0.404,2.221-1.358l2.22,1.211c-0.716,1.578-2.349,2.495-4.423,2.495
								C227.029,474.017,224.735,471.907,224.735,468.934"/>
						</g>
						<g>
							<path style="fill:#FFFFFF;" d="M242.828,473.393c-0.587,0.422-1.45,0.624-2.331,0.624c-2.33,0-3.688-1.193-3.688-3.542
								v-4.055h-1.523v-2.202h1.523v-2.404h2.863v2.404h2.459v2.202h-2.459v4.019c0,0.844,0.458,1.303,1.229,1.303
								c0.422,0,0.844-0.128,1.156-0.367L242.828,473.393z"/>
						</g>
					</g>
					<g>
						<path style="fill:#FFFFFF;" d="M262.474,463.997v2.643c-0.238-0.018-0.422-0.037-0.642-0.037
							c-1.578,0-2.624,0.862-2.624,2.753v4.661h-2.863v-9.873h2.734v1.303C259.776,464.493,260.951,463.997,262.474,463.997"/>
					</g>
					<g>
						<path style="fill:#FFFFFF;" d="M263.299,472.53l1.009-2.239c1.083,0.789,2.697,1.339,4.239,1.339
							c1.762,0,2.477-0.587,2.477-1.376c0-2.404-7.469-0.752-7.469-5.524c0-2.184,1.762-4,5.413-4c1.615,0,3.267,0.385,4.459,1.138
							l-0.918,2.257c-1.193-0.679-2.422-1.009-3.56-1.009c-1.761,0-2.44,0.66-2.44,1.468c0,2.367,7.468,0.734,7.468,5.45
							c0,2.147-1.78,3.982-5.45,3.982C266.492,474.017,264.437,473.411,263.299,472.53"/>
					</g>
					<g>
						<path style="fill:#FFFFFF;" d="M285.428,469.741h-7.469c0.275,1.23,1.321,1.982,2.826,1.982c1.046,0,1.798-0.312,2.477-0.954
							l1.523,1.651c-0.918,1.046-2.294,1.597-4.074,1.597c-3.413,0-5.634-2.147-5.634-5.083c0-2.954,2.257-5.083,5.267-5.083
							c2.9,0,5.138,1.945,5.138,5.12C285.484,469.191,285.447,469.503,285.428,469.741 M277.923,468.071h4.863
							c-0.202-1.248-1.138-2.055-2.422-2.055C279.061,466.016,278.125,466.805,277.923,468.071"/>
					</g>
					<g>
						<path style="fill:#FFFFFF;" d="M297.007,469.741h-7.469c0.275,1.23,1.321,1.982,2.826,1.982c1.046,0,1.798-0.312,2.477-0.954
							l1.523,1.651c-0.918,1.046-2.294,1.597-4.074,1.597c-3.413,0-5.634-2.147-5.634-5.083c0-2.954,2.257-5.083,5.267-5.083
							c2.899,0,5.138,1.945,5.138,5.12C297.062,469.191,297.025,469.503,297.007,469.741 M289.501,468.071h4.863
							c-0.202-1.248-1.138-2.055-2.422-2.055C290.639,466.016,289.703,466.805,289.501,468.071"/>
					</g>
					<g>
						<polygon style="fill:#FFFFFF;" points="303.208,470.145 301.831,471.503 301.831,474.017 298.969,474.017 298.969,460.401 
							301.831,460.401 301.831,468.108 306.016,464.144 309.429,464.144 305.318,468.328 309.796,474.017 306.327,474.017 						"/>
					</g>
					<g>
						<path style="fill:#FFFFFF;" d="M256.601,475.359L256.601,475.359l-2.86-2.86c-0.435,0.508-0.953,0.943-1.534,1.284
							c-0.092,0.069-0.186,0.136-0.283,0.199l3.027,3.027c0.456,0.456,1.195,0.456,1.65,0
							C257.057,476.554,257.057,475.815,256.601,475.359"/>
					</g>
					<g>
						<path style="fill:#FFFFFF;" d="M249.984,463.244c0.221-0.173,0.495-0.281,0.797-0.281c0.042,0,0.083,0.002,0.124,0.006
							c-0.214-0.156-0.478-0.249-0.764-0.249c-0.395,0-0.744,0.18-0.981,0.458c-0.051,0-0.1,0.006-0.151,0.008
							c0.039-0.077,0.064-0.162,0.064-0.255c0-0.234-0.143-0.434-0.346-0.519c0.087,0.126,0.138,0.279,0.138,0.445
							c0,0.122-0.031,0.237-0.081,0.341c-2.811,0.201-5.03,2.539-5.03,5.4c0,2.993,2.426,5.42,5.42,5.42
							c2.993,0,5.42-2.426,5.42-5.42C254.595,465.879,252.593,463.635,249.984,463.244 M247.983,464.656
							c0.435,0,0.844,0.112,1.199,0.309c0.374-0.245,0.82-0.387,1.299-0.387c0.711,0,1.348,0.312,1.784,0.806
							c-0.435-0.379-1.004-0.61-1.627-0.61c-0.449,0-0.87,0.12-1.234,0.329c-0.079,0.046-0.156,0.096-0.229,0.15
							c-0.065-0.048-0.133-0.093-0.204-0.134c-0.369-0.219-0.8-0.344-1.26-0.344c-0.3,0-0.588,0.054-0.854,0.152
							C247.196,464.754,247.578,464.656,247.983,464.656 M251.772,469.098c0.115,0.305,0.181,0.634,0.181,0.979
							c0,1.534-1.244,2.777-2.778,2.777c-1.534,0-2.777-1.243-2.777-2.777c0-0.345,0.066-0.674,0.181-0.979
							c-0.62-0.382-1.035-1.064-1.035-1.846c0-1.197,0.971-2.168,2.168-2.168c0.565,0,1.078,0.218,1.463,0.572
							c0.386-0.354,0.899-0.572,1.464-0.572c1.197,0,2.168,0.971,2.168,2.168C252.807,468.034,252.392,468.716,251.772,469.098"/>
					</g>
					<g>
						<path style="fill:#FFFFFF;" d="M251.666,467.061c0,0.497-0.404,0.901-0.901,0.901c-0.497,0-0.901-0.404-0.901-0.901
							s0.404-0.901,0.901-0.901c0.101,0,0.197,0.017,0.287,0.047c-0.03,0.062-0.045,0.132-0.045,0.204
							c0,0.273,0.221,0.494,0.494,0.494c0.05,0,0.099-0.008,0.146-0.022C251.66,466.941,251.666,467,251.666,467.061"/>
					</g>
					<g>
						<path style="fill:#FFFFFF;" d="M248.255,467.061c0,0.376-0.305,0.681-0.681,0.681c-0.376,0-0.681-0.305-0.681-0.681
							s0.305-0.681,0.681-0.681c0.076,0,0.149,0.013,0.217,0.035c-0.023,0.047-0.034,0.1-0.034,0.155
							c0,0.206,0.167,0.374,0.374,0.374c0.038,0,0.075-0.006,0.11-0.017C248.25,466.97,248.255,467.015,248.255,467.061"/>
					</g>
					<g>
						<g>
							<g>
								<rect x="242.908" y="467.83" style="fill:#FFFFFF;" width="0.616" height="0.616"/>
							</g>
							<g>
								<rect x="254.827" y="467.83" style="fill:#FFFFFF;" width="0.616" height="0.616"/>
							</g>
							<g>
								<path style="fill:#FFFFFF;" d="M255.205,468.082h-0.14c0-3.248-2.642-5.89-5.89-5.89c-3.248,0-5.89,2.642-5.89,5.89h-0.14
									c0-1.611,0.627-3.125,1.766-4.264c1.139-1.139,2.653-1.766,4.264-1.766c1.611,0,3.125,0.627,4.264,1.766
									C254.578,464.957,255.205,466.471,255.205,468.082"/>
							</g>
						</g>
						<g>
							<rect x="248.868" y="461.814" style="fill:#FFFFFF;" width="0.616" height="0.616"/>
						</g>
						<g>
							<rect x="244.95" y="462.052" style="fill:#FFFFFF;" width="8.45" height="0.14"/>
						</g>
						<g>
							<path style="fill:#FFFFFF;" d="M245.174,462.15c0,0.108-0.088,0.196-0.196,0.196c-0.108,0-0.196-0.088-0.196-0.196
								c0-0.108,0.088-0.196,0.196-0.196C245.086,461.954,245.174,462.042,245.174,462.15"/>
						</g>
						<g>
							<path style="fill:#FFFFFF;" d="M253.596,462.15c0,0.108-0.088,0.196-0.196,0.196c-0.108,0-0.196-0.088-0.196-0.196
								c0-0.108,0.088-0.196,0.196-0.196C253.509,461.954,253.596,462.042,253.596,462.15"/>
						</g>
					</g>
				</g>
				<g>
					<path style="fill:#FFFFFF;" d="M314.356,473.409c0,1.559-2.364,1.559-2.364,0C311.993,471.851,314.356,471.851,314.356,473.409
						z"/>
				</g>
				<g>
					<g>
						<g>
							<path style="fill:#FFFFFF;" d="M161.739,466.549l1.772,6.088l1.855-6.088h2.215l-2.823,8.14h-2.33l-0.837-2.396l-0.722-2.708
								l-0.722,2.708l-0.837,2.396h-2.33l-2.839-8.14h2.231l1.855,6.088l1.756-6.088H161.739z"/>
						</g>
						<g>
							<path style="fill:#FFFFFF;" d="M176.713,466.549l1.772,6.088l1.855-6.088h2.215l-2.823,8.14h-2.33l-0.837-2.396l-0.722-2.708
								l-0.722,2.708l-0.837,2.396h-2.33l-2.839-8.14h2.231l1.855,6.088l1.756-6.088H176.713z"/>
						</g>
						<g>
							<path style="fill:#FFFFFF;" d="M191.687,466.549l1.772,6.088l1.855-6.088h2.215l-2.823,8.14h-2.33l-0.837-2.396l-0.722-2.708
								l-0.722,2.708l-0.837,2.396h-2.33l-2.839-8.14h2.231l1.855,6.088l1.756-6.088H191.687z"/>
						</g>
					</g>
					<g>
						<path style="fill:#FFFFFF;" d="M200.908,473.52c0,1.559-2.364,1.559-2.364,0C198.545,471.962,200.908,471.962,200.908,473.52z
							"/>
					</g>
					<g>
						<path style="fill:#FFFFFF;" d="M322.71,473.409c-0.935,0.919-1.919,1.28-3.117,1.28c-2.346,0-4.3-1.411-4.3-4.282
							s1.953-4.284,4.3-4.284c1.149,0,2.035,0.329,2.921,1.199l-1.264,1.329c-0.476-0.428-1.066-0.64-1.623-0.64
							c-1.346,0-2.33,0.985-2.33,2.396c0,1.542,1.05,2.362,2.297,2.362c0.64,0,1.28-0.18,1.772-0.672L322.71,473.409z"/>
					</g>
					<g>
						<path style="fill:#FFFFFF;" d="M331.805,470.472c0,2.33-1.591,4.217-4.217,4.217c-2.626,0-4.201-1.887-4.201-4.217
							c0-2.314,1.609-4.217,4.185-4.217C330.149,466.255,331.805,468.158,331.805,470.472z M325.389,470.472
							c0,1.231,0.739,2.38,2.199,2.38c1.46,0,2.199-1.149,2.199-2.38c0-1.215-0.854-2.396-2.199-2.396
							C326.144,468.077,325.389,469.258,325.389,470.472z"/>
					</g>
					<g>
						<path style="fill:#FFFFFF;" d="M338.572,474.689v-4.332c0-1.068-0.559-2.035-1.658-2.035c-1.082,0-1.722,0.967-1.722,2.035
							v4.332h-2.003v-8.107h1.855l0.148,0.985c0.426-0.82,1.362-1.116,2.133-1.116c0.969,0,1.937,0.394,2.396,1.51
							c0.723-1.149,1.658-1.478,2.708-1.478c2.297,0,3.43,1.412,3.43,3.84v4.365h-2.003v-4.365c0-1.066-0.442-1.97-1.526-1.97
							c-1.082,0-1.756,0.935-1.756,2.003v4.332H338.572z"/>
					</g>
				</g>
			</g>
		</g>
		<g style="opacity:0.61;">
			<g>
				<g>
					<path style="fill:#FFFFFF;" d="M345.988,431.299c-0.006-1.224-0.959-2.121-2.189-2.14c-0.924-0.014-0.832,0.12-0.834-0.867
						c-0.003-1.097-0.007-2.194,0.003-3.292c0.003-0.379-0.112-0.691-0.362-0.976c-2.342-2.668-4.678-5.342-7.019-8.011
						c-0.12-0.137-0.275-0.244-0.414-0.366c-6.214,0-12.427,0-18.641,0c-0.794,0.293-1.14,0.868-1.138,1.709
						c0.01,3.748,0.004,7.496,0.004,11.243c0,0.556-0.003,0.589-0.55,0.551c-1.497-0.102-2.516,0.986-2.497,2.492
						c0.044,3.476,0.013,6.953,0.014,10.429c0.001,1.58,0.867,2.443,2.45,2.449c0.582,0.002,0.582,0.002,0.582,0.6
						c0,2.219-0.001,4.438,0.001,6.657c0.001,1.192,0.58,1.771,1.768,1.771c8.013,0.001,16.027,0.001,24.04,0
						c1.168,0,1.755-0.583,1.757-1.745c0.002-2.256,0-4.512,0.001-6.768c0-0.512,0.002-0.511,0.52-0.515
						c0.271-0.002,0.541,0.008,0.809-0.058c0.996-0.246,1.69-1.044,1.694-2.069C346.003,438.696,346.005,434.997,345.988,431.299z
						 M317.537,417.162c5.337,0,10.674,0,16.01,0c0.548,0,0.554,0.007,0.554,0.561c0.001,2.243-0.001,4.486,0.001,6.73
						c0.001,0.811,0.249,1.059,1.06,1.059c1.91,0.001,3.821,0,5.731,0.001c0.458,0,0.479,0.021,0.481,0.483
						c0.003,0.887,0.002,1.775,0,2.662c-0.001,0.477-0.024,0.498-0.504,0.499c-3.895,0.001-7.79,0-11.684,0
						c-3.882,0-7.765,0-11.647,0c-0.55,0-0.552-0.001-0.552-0.561c-0.001-3.624-0.001-7.247,0-10.871
						C316.987,417.166,316.991,417.162,317.537,417.162z M340.822,451.579c-3.883,0.001-7.766,0-11.65,0c-3.871,0-7.742,0-11.613,0
						c-0.572,0-0.574-0.002-0.574-0.579c-0.001-1.997-0.001-3.994,0.001-5.991c0-0.464,0.023-0.486,0.478-0.487
						c7.803-0.001,15.607-0.001,23.41,0c0.478,0,0.499,0.02,0.499,0.503c0.002,1.997,0.001,3.994,0,5.991
						C341.375,451.574,341.37,451.579,340.822,451.579z"/>
				</g>
				<g>
					<g>
						<rect x="327.418" y="417.053" style="fill:#FFFFFF;" width="1.757" height="1.054"/>
					</g>
					<g>
						<rect x="325.662" y="418.107" style="fill:#FFFFFF;" width="1.757" height="1.054"/>
					</g>
					<g>
						<rect x="327.418" y="419.161" style="fill:#FFFFFF;" width="1.757" height="1.054"/>
					</g>
					<g>
						<rect x="325.662" y="420.215" style="fill:#FFFFFF;" width="1.757" height="1.054"/>
					</g>
					<g>
						<rect x="327.418" y="421.269" style="fill:#FFFFFF;" width="1.757" height="1.054"/>
					</g>
					<g>
						<rect x="325.662" y="422.323" style="fill:#FFFFFF;" width="1.757" height="1.054"/>
					</g>
					<g>
						<rect x="327.418" y="423.378" style="fill:#FFFFFF;" width="1.757" height="1.054"/>
					</g>
					<g>
						<rect x="325.662" y="424.432" style="fill:#FFFFFF;" width="1.757" height="1.054"/>
					</g>
					<g>
						<rect x="327.418" y="425.486" style="fill:#FFFFFF;" width="1.757" height="1.054"/>
					</g>
					<g>
						<rect x="325.662" y="426.54" style="fill:#FFFFFF;" width="1.757" height="1.054"/>
					</g>
					<g>
						<rect x="327.418" y="427.594" style="fill:#FFFFFF;" width="1.757" height="1.054"/>
					</g>
					<g>
						<rect x="325.662" y="428.648" style="fill:#FFFFFF;" width="1.757" height="1.054"/>
					</g>
				</g>
			</g>
			<g>
				<path style="fill:#FFFFFF;" d="M187.637,431.299c-0.006-1.224-0.959-2.121-2.189-2.14c-0.924-0.014-0.832,0.12-0.834-0.867
					c-0.003-1.097-0.007-2.194,0.003-3.292c0.003-0.379-0.112-0.691-0.362-0.976c-2.342-2.668-4.678-5.342-7.019-8.011
					c-0.12-0.137-0.275-0.244-0.414-0.366c-6.214,0-12.427,0-18.641,0c-0.794,0.293-1.14,0.868-1.138,1.709
					c0.01,3.748,0.004,7.496,0.004,11.243c0,0.556-0.003,0.589-0.55,0.551c-1.497-0.102-2.516,0.986-2.497,2.492
					c0.044,3.476,0.013,6.953,0.014,10.429c0.001,1.58,0.867,2.443,2.45,2.449c0.582,0.002,0.582,0.002,0.582,0.6
					c0,2.219-0.001,4.438,0.001,6.657c0.001,1.192,0.58,1.771,1.768,1.771c8.013,0.001,16.027,0.001,24.04,0
					c1.168,0,1.755-0.583,1.757-1.745c0.002-2.256,0-4.512,0.001-6.768c0-0.512,0.002-0.511,0.52-0.515
					c0.271-0.002,0.541,0.008,0.809-0.058c0.996-0.246,1.69-1.044,1.694-2.069C187.652,438.696,187.655,434.997,187.637,431.299z
					 M159.187,417.162c5.337,0,10.674,0,16.01,0c0.548,0,0.554,0.007,0.554,0.561c0.001,2.243-0.001,4.486,0.001,6.73
					c0.001,0.811,0.249,1.059,1.06,1.059c1.91,0.001,3.821,0,5.731,0.001c0.458,0,0.479,0.021,0.481,0.483
					c0.003,0.887,0.002,1.775,0,2.662c-0.001,0.477-0.024,0.498-0.504,0.499c-3.895,0.001-7.79,0-11.684,0
					c-3.882,0-7.765,0-11.647,0c-0.55,0-0.552-0.001-0.552-0.561c-0.001-3.624-0.001-7.247,0-10.871
					C158.636,417.166,158.64,417.162,159.187,417.162z M182.472,451.579c-3.883,0.001-7.766,0-11.65,0c-3.871,0-7.742,0-11.613,0
					c-0.572,0-0.574-0.002-0.574-0.579c-0.001-1.997-0.001-3.994,0.001-5.991c0-0.464,0.023-0.486,0.478-0.487
					c7.803-0.001,15.607-0.001,23.41,0c0.478,0,0.499,0.02,0.499,0.503c0.002,1.997,0.001,3.994,0,5.991
					C183.024,451.574,183.019,451.579,182.472,451.579z"/>
			</g>
			<g>
				<path style="fill:#FFFFFF;" d="M159.779,440.669v-7.897h2.779c0.375,0,0.726,0.061,1.053,0.182
					c0.327,0.121,0.612,0.292,0.855,0.513c0.242,0.221,0.434,0.483,0.573,0.789c0.14,0.305,0.21,0.642,0.21,1.009
					c0,0.375-0.07,0.715-0.21,1.02c-0.14,0.305-0.331,0.568-0.573,0.789c-0.243,0.221-0.528,0.392-0.855,0.513
					c-0.327,0.121-0.678,0.182-1.053,0.182h-1.29v2.901H159.779z M162.58,436.356c0.39,0,0.684-0.111,0.882-0.331
					c0.199-0.22,0.298-0.474,0.298-0.761c0-0.14-0.024-0.276-0.072-0.408c-0.048-0.132-0.121-0.248-0.221-0.347
					c-0.099-0.099-0.223-0.178-0.37-0.237c-0.147-0.059-0.32-0.089-0.518-0.089h-1.312v2.173H162.58z"/>
				<path style="fill:#FFFFFF;" d="M166.308,432.771h1.731l3.177,5.294h0.088l-0.088-1.522v-3.772h1.478v7.897h-1.566l-3.353-5.592
					h-0.088l0.088,1.522v4.07h-1.467V432.771z"/>
				<path style="fill:#FFFFFF;" d="M177.922,436.334h3.872c0.022,0.089,0.04,0.195,0.055,0.32c0.014,0.125,0.022,0.25,0.022,0.375
					c0,0.507-0.077,0.985-0.231,1.434c-0.154,0.449-0.397,0.849-0.728,1.202c-0.353,0.375-0.776,0.666-1.268,0.871
					c-0.493,0.206-1.055,0.309-1.688,0.309c-0.574,0-1.114-0.103-1.622-0.309c-0.507-0.206-0.948-0.492-1.323-0.86
					c-0.375-0.367-0.673-0.803-0.894-1.307c-0.221-0.504-0.331-1.053-0.331-1.649c0-0.595,0.11-1.145,0.331-1.649
					c0.221-0.504,0.518-0.939,0.894-1.307c0.375-0.367,0.816-0.654,1.323-0.86c0.507-0.206,1.048-0.309,1.622-0.309
					c0.64,0,1.211,0.11,1.715,0.331c0.504,0.221,0.935,0.526,1.296,0.915l-1.025,1.004c-0.258-0.272-0.544-0.48-0.861-0.623
					c-0.316-0.143-0.695-0.215-1.136-0.215c-0.361,0-0.703,0.065-1.026,0.193c-0.324,0.129-0.607,0.311-0.85,0.546
					c-0.242,0.235-0.436,0.52-0.579,0.855c-0.143,0.335-0.215,0.708-0.215,1.119c0,0.412,0.072,0.785,0.215,1.12
					c0.143,0.335,0.338,0.62,0.584,0.855c0.246,0.235,0.531,0.418,0.855,0.546c0.323,0.129,0.669,0.193,1.037,0.193
					c0.419,0,0.773-0.061,1.064-0.182c0.29-0.121,0.538-0.278,0.744-0.469c0.148-0.132,0.275-0.3,0.381-0.502
					c0.106-0.202,0.189-0.428,0.248-0.678h-2.482V436.334z"/>
			</g>
			<g>
				<path style="fill:#FFFFFF;" d="M224.019,431.299c-0.006-1.224-0.959-2.121-2.189-2.14c-0.924-0.014-0.832,0.12-0.834-0.867
					c-0.003-1.097-0.007-2.194,0.003-3.292c0.003-0.379-0.112-0.691-0.362-0.976c-2.342-2.668-4.678-5.342-7.019-8.011
					c-0.12-0.137-0.275-0.244-0.414-0.366c-6.214,0-12.427,0-18.641,0c-0.794,0.293-1.14,0.868-1.138,1.709
					c0.01,3.748,0.004,7.496,0.004,11.243c0,0.556-0.003,0.589-0.55,0.551c-1.497-0.102-2.516,0.986-2.497,2.492
					c0.044,3.476,0.013,6.953,0.014,10.429c0.001,1.58,0.867,2.443,2.45,2.449c0.582,0.002,0.582,0.002,0.582,0.6
					c0,2.219-0.001,4.438,0.001,6.657c0.001,1.192,0.58,1.771,1.768,1.771c8.013,0.001,16.027,0.001,24.04,0
					c1.168,0,1.755-0.583,1.757-1.745c0.002-2.256,0-4.512,0.001-6.768c0-0.512,0.002-0.511,0.52-0.515
					c0.271-0.002,0.541,0.008,0.809-0.058c0.997-0.246,1.69-1.044,1.694-2.069C224.034,438.696,224.036,434.997,224.019,431.299z
					 M195.568,417.162c5.337,0,10.674,0,16.01,0c0.548,0,0.554,0.007,0.554,0.561c0.001,2.243-0.001,4.486,0.001,6.73
					c0.001,0.811,0.249,1.059,1.06,1.059c1.91,0.001,3.821,0,5.731,0.001c0.458,0,0.479,0.021,0.481,0.483
					c0.003,0.887,0.002,1.775,0,2.662c-0.001,0.477-0.024,0.498-0.504,0.499c-3.895,0.001-7.79,0-11.684,0
					c-3.882,0-7.765,0-11.647,0c-0.55,0-0.552-0.001-0.552-0.561c-0.001-3.624-0.001-7.247,0-10.871
					C195.018,417.166,195.022,417.162,195.568,417.162z M218.854,451.579c-3.883,0.001-7.766,0-11.65,0c-3.871,0-7.742,0-11.613,0
					c-0.572,0-0.574-0.002-0.574-0.579c-0.001-1.997-0.001-3.994,0.001-5.991c0-0.464,0.023-0.486,0.478-0.487
					c7.803-0.001,15.607-0.001,23.41,0c0.478,0,0.499,0.02,0.499,0.503c0.002,1.997,0.001,3.994,0,5.991
					C219.406,451.574,219.401,451.579,218.854,451.579z"/>
			</g>
			<g>
				<path style="fill:#FFFFFF;" d="M205.111,432.771h1.699l2.967,7.897h-1.644l-0.651-1.886h-3.044l-0.651,1.886h-1.643
					L205.111,432.771z M206.997,437.415l-0.706-1.974l-0.287-0.96h-0.088l-0.287,0.96l-0.706,1.974H206.997z"/>
				<path style="fill:#FFFFFF;" d="M211.331,434.536c-0.125,0-0.245-0.024-0.359-0.072c-0.114-0.048-0.213-0.114-0.298-0.199
					c-0.084-0.084-0.151-0.182-0.198-0.292c-0.048-0.11-0.072-0.232-0.072-0.364s0.024-0.254,0.072-0.364
					c0.048-0.11,0.114-0.208,0.198-0.292c0.084-0.084,0.184-0.151,0.298-0.198c0.114-0.048,0.233-0.072,0.359-0.072
					c0.257,0,0.478,0.09,0.662,0.27c0.184,0.181,0.276,0.399,0.276,0.656s-0.092,0.476-0.276,0.656
					C211.809,434.446,211.589,434.536,211.331,434.536z M210.615,440.669v-5.404h1.445v5.404H210.615z"/>
			</g>
			<g>
				<path style="fill:#FFFFFF;" d="M261.044,431.299c-0.006-1.224-0.959-2.121-2.189-2.14c-0.924-0.014-0.832,0.12-0.834-0.867
					c-0.003-1.097-0.007-2.194,0.003-3.292c0.003-0.379-0.112-0.691-0.362-0.976c-2.342-2.668-4.678-5.342-7.019-8.011
					c-0.12-0.137-0.275-0.244-0.414-0.366c-6.214,0-12.427,0-18.641,0c-0.794,0.293-1.14,0.868-1.138,1.709
					c0.01,3.748,0.004,7.496,0.004,11.243c0,0.556-0.003,0.589-0.55,0.551c-1.497-0.102-2.516,0.986-2.497,2.492
					c0.044,3.476,0.013,6.953,0.014,10.429c0.001,1.58,0.867,2.443,2.45,2.449c0.582,0.002,0.582,0.002,0.582,0.6
					c0,2.219-0.001,4.438,0.001,6.657c0.001,1.192,0.58,1.771,1.768,1.771c8.013,0.001,16.027,0.001,24.04,0
					c1.168,0,1.755-0.583,1.757-1.745c0.002-2.256,0-4.512,0.001-6.768c0-0.512,0.002-0.511,0.52-0.515
					c0.271-0.002,0.541,0.008,0.809-0.058c0.996-0.246,1.69-1.044,1.694-2.069C261.059,438.696,261.061,434.997,261.044,431.299z
					 M232.593,417.162c5.337,0,10.674,0,16.01,0c0.548,0,0.554,0.007,0.554,0.561c0.001,2.243-0.001,4.486,0.001,6.73
					c0.001,0.811,0.249,1.059,1.06,1.059c1.91,0.001,3.821,0,5.731,0.001c0.458,0,0.479,0.021,0.481,0.483
					c0.003,0.887,0.002,1.775,0,2.662c-0.001,0.477-0.024,0.498-0.504,0.499c-3.895,0.001-7.79,0-11.684,0
					c-3.882,0-7.765,0-11.647,0c-0.55,0-0.552-0.001-0.552-0.561c-0.001-3.624-0.001-7.247,0-10.871
					C232.042,417.166,232.047,417.162,232.593,417.162z M255.878,451.579c-3.883,0.001-7.766,0-11.65,0c-3.871,0-7.742,0-11.613,0
					c-0.572,0-0.574-0.002-0.574-0.579c-0.001-1.997-0.001-3.994,0.001-5.991c0-0.464,0.023-0.486,0.478-0.487
					c7.803-0.001,15.607-0.001,23.41,0c0.478,0,0.499,0.02,0.499,0.503c0.002,1.997,0.001,3.994,0,5.991
					C256.431,451.574,256.426,451.579,255.878,451.579z"/>
			</g>
			<g>
				<path style="fill:#FFFFFF;" d="M236.361,440.845c-0.338,0-0.662-0.048-0.971-0.143c-0.309-0.095-0.592-0.239-0.849-0.43
					c-0.257-0.191-0.481-0.425-0.673-0.7c-0.191-0.276-0.342-0.597-0.452-0.965l1.401-0.551c0.103,0.397,0.283,0.726,0.54,0.987
					c0.257,0.261,0.596,0.392,1.015,0.392c0.154,0,0.303-0.02,0.447-0.061c0.143-0.04,0.272-0.099,0.386-0.176
					s0.204-0.175,0.27-0.292c0.066-0.118,0.099-0.254,0.099-0.408c0-0.147-0.026-0.279-0.077-0.397
					c-0.051-0.117-0.138-0.227-0.259-0.331c-0.121-0.103-0.28-0.202-0.475-0.298c-0.195-0.095-0.435-0.195-0.722-0.298l-0.485-0.176
					c-0.213-0.073-0.429-0.173-0.645-0.298c-0.217-0.125-0.413-0.276-0.59-0.452c-0.177-0.176-0.322-0.384-0.436-0.623
					c-0.114-0.239-0.171-0.509-0.171-0.81c0-0.309,0.06-0.597,0.182-0.866c0.121-0.268,0.294-0.503,0.518-0.706
					c0.224-0.202,0.492-0.36,0.805-0.474s0.66-0.171,1.042-0.171c0.397,0,0.74,0.053,1.031,0.16
					c0.291,0.107,0.537,0.243,0.739,0.408c0.202,0.165,0.366,0.348,0.491,0.546c0.125,0.199,0.217,0.386,0.276,0.563l-1.312,0.551
					c-0.074-0.221-0.208-0.419-0.402-0.596c-0.195-0.176-0.462-0.265-0.8-0.265c-0.324,0-0.592,0.075-0.805,0.226
					c-0.213,0.151-0.32,0.348-0.32,0.59c0,0.235,0.103,0.436,0.309,0.601c0.206,0.165,0.533,0.325,0.982,0.48l0.497,0.165
					c0.316,0.111,0.605,0.237,0.866,0.381c0.261,0.143,0.485,0.314,0.673,0.513c0.187,0.199,0.331,0.425,0.43,0.678
					c0.1,0.254,0.149,0.546,0.149,0.877c0,0.412-0.083,0.767-0.248,1.064c-0.165,0.298-0.377,0.542-0.634,0.734
					c-0.258,0.191-0.548,0.335-0.872,0.43C236.986,440.797,236.67,440.845,236.361,440.845z"/>
				<path style="fill:#FFFFFF;" d="M239.516,432.771h1.61l1.633,4.754l0.287,1.015h0.088l0.309-1.015l1.699-4.754h1.61l-2.879,7.897
					h-1.566L239.516,432.771z"/>
				<path style="fill:#FFFFFF;" d="M251.097,436.334h3.871c0.022,0.089,0.04,0.195,0.055,0.32c0.015,0.125,0.023,0.25,0.023,0.375
					c0,0.507-0.078,0.985-0.232,1.434c-0.154,0.449-0.397,0.849-0.728,1.202c-0.353,0.375-0.775,0.666-1.268,0.871
					c-0.493,0.206-1.055,0.309-1.688,0.309c-0.574,0-1.114-0.103-1.621-0.309c-0.507-0.206-0.949-0.492-1.324-0.86
					c-0.375-0.367-0.673-0.803-0.894-1.307c-0.22-0.504-0.331-1.053-0.331-1.649c0-0.595,0.11-1.145,0.331-1.649
					c0.221-0.504,0.518-0.939,0.894-1.307c0.375-0.367,0.816-0.654,1.324-0.86c0.507-0.206,1.047-0.309,1.621-0.309
					c0.64,0,1.211,0.11,1.715,0.331c0.504,0.221,0.936,0.526,1.296,0.915l-1.026,1.004c-0.257-0.272-0.544-0.48-0.861-0.623
					c-0.316-0.143-0.694-0.215-1.136-0.215c-0.36,0-0.702,0.065-1.026,0.193c-0.323,0.129-0.607,0.311-0.849,0.546
					c-0.243,0.235-0.436,0.52-0.579,0.855c-0.143,0.335-0.215,0.708-0.215,1.119c0,0.412,0.072,0.785,0.215,1.12
					c0.143,0.335,0.338,0.62,0.585,0.855c0.246,0.235,0.531,0.418,0.854,0.546c0.324,0.129,0.669,0.193,1.037,0.193
					c0.419,0,0.774-0.061,1.064-0.182c0.29-0.121,0.539-0.278,0.745-0.469c0.147-0.132,0.274-0.3,0.38-0.502
					c0.107-0.202,0.189-0.428,0.248-0.678h-2.482V436.334z"/>
			</g>
			<g>
				<path style="fill:#FFFFFF;" d="M297.3,431.299c-0.006-1.224-0.959-2.121-2.189-2.14c-0.924-0.014-0.832,0.12-0.834-0.867
					c-0.003-1.097-0.007-2.194,0.003-3.292c0.003-0.379-0.112-0.691-0.362-0.976c-2.342-2.668-4.678-5.342-7.019-8.011
					c-0.12-0.137-0.275-0.244-0.414-0.366c-6.214,0-12.427,0-18.641,0c-0.794,0.293-1.14,0.868-1.138,1.709
					c0.01,3.748,0.004,7.496,0.004,11.243c0,0.556-0.003,0.589-0.55,0.551c-1.497-0.102-2.516,0.986-2.497,2.492
					c0.044,3.476,0.013,6.953,0.014,10.429c0.001,1.58,0.867,2.443,2.45,2.449c0.582,0.002,0.582,0.002,0.582,0.6
					c0,2.219-0.001,4.438,0.001,6.657c0.001,1.192,0.58,1.771,1.768,1.771c8.013,0.001,16.027,0.001,24.04,0
					c1.168,0,1.755-0.583,1.757-1.745c0.002-2.256,0-4.512,0.001-6.768c0-0.512,0.002-0.511,0.52-0.515
					c0.271-0.002,0.541,0.008,0.809-0.058c0.996-0.246,1.69-1.044,1.694-2.069C297.315,438.696,297.318,434.997,297.3,431.299z
					 M268.85,417.162c5.337,0,10.674,0,16.01,0c0.548,0,0.554,0.007,0.554,0.561c0.001,2.243-0.001,4.486,0.001,6.73
					c0.001,0.811,0.249,1.059,1.06,1.059c1.91,0.001,3.821,0,5.731,0.001c0.458,0,0.479,0.021,0.481,0.483
					c0.003,0.887,0.002,1.775,0,2.662c-0.001,0.477-0.024,0.498-0.504,0.499c-3.895,0.001-7.79,0-11.684,0
					c-3.882,0-7.765,0-11.647,0c-0.55,0-0.552-0.001-0.552-0.561c-0.001-3.624-0.001-7.247,0-10.871
					C268.299,417.166,268.303,417.162,268.85,417.162z M292.135,451.579c-3.883,0.001-7.766,0-11.65,0c-3.871,0-7.742,0-11.613,0
					c-0.572,0-0.574-0.002-0.574-0.579c-0.001-1.997-0.001-3.994,0.001-5.991c0-0.464,0.023-0.486,0.478-0.487
					c7.803-0.001,15.607-0.001,23.41,0c0.478,0,0.499,0.02,0.499,0.503c0.001,1.997,0.001,3.994,0,5.991
					C292.687,451.574,292.682,451.579,292.135,451.579z"/>
			</g>
			<g>
				<path style="fill:#FFFFFF;" d="M272.966,434.183v1.831h3.165v1.412h-3.165v1.831h3.518v1.412h-5.007v-7.897h5.007v1.412H272.966
					z"/>
				<path style="fill:#FFFFFF;" d="M277.852,440.669v-7.897h2.779c0.375,0,0.726,0.061,1.053,0.182
					c0.327,0.121,0.612,0.292,0.855,0.513c0.243,0.221,0.434,0.483,0.574,0.789c0.14,0.305,0.209,0.642,0.209,1.009
					c0,0.375-0.07,0.715-0.209,1.02c-0.14,0.305-0.331,0.568-0.574,0.789c-0.243,0.221-0.528,0.392-0.855,0.513
					c-0.327,0.121-0.678,0.182-1.053,0.182h-1.29v2.901H277.852z M280.653,436.356c0.389,0,0.684-0.111,0.882-0.331
					c0.199-0.22,0.298-0.474,0.298-0.761c0-0.14-0.024-0.276-0.072-0.408c-0.048-0.132-0.121-0.248-0.221-0.347
					c-0.099-0.099-0.222-0.178-0.37-0.237c-0.147-0.059-0.32-0.089-0.518-0.089h-1.312v2.173H280.653z"/>
				<path style="fill:#FFFFFF;" d="M286.797,440.845c-0.338,0-0.662-0.048-0.971-0.143c-0.309-0.095-0.592-0.239-0.849-0.43
					c-0.257-0.191-0.482-0.425-0.673-0.7c-0.191-0.276-0.342-0.597-0.452-0.965l1.401-0.551c0.103,0.397,0.283,0.726,0.541,0.987
					c0.257,0.261,0.595,0.392,1.015,0.392c0.154,0,0.303-0.02,0.447-0.061c0.143-0.04,0.272-0.099,0.386-0.176
					c0.114-0.077,0.204-0.175,0.27-0.292c0.066-0.118,0.1-0.254,0.1-0.408c0-0.147-0.026-0.279-0.077-0.397
					c-0.051-0.117-0.138-0.227-0.259-0.331c-0.121-0.103-0.279-0.202-0.474-0.298c-0.195-0.095-0.436-0.195-0.723-0.298
					l-0.485-0.176c-0.213-0.073-0.428-0.173-0.645-0.298c-0.217-0.125-0.414-0.276-0.59-0.452c-0.176-0.176-0.322-0.384-0.436-0.623
					c-0.114-0.239-0.171-0.509-0.171-0.81c0-0.309,0.061-0.597,0.182-0.866c0.121-0.268,0.294-0.503,0.518-0.706
					c0.224-0.202,0.493-0.36,0.805-0.474c0.312-0.114,0.66-0.171,1.042-0.171c0.397,0,0.741,0.053,1.031,0.16
					c0.29,0.107,0.537,0.243,0.739,0.408c0.202,0.165,0.365,0.348,0.491,0.546c0.125,0.199,0.217,0.386,0.276,0.563l-1.312,0.551
					c-0.074-0.221-0.208-0.419-0.403-0.596c-0.195-0.176-0.462-0.265-0.799-0.265c-0.324,0-0.592,0.075-0.805,0.226
					c-0.213,0.151-0.32,0.348-0.32,0.59c0,0.235,0.103,0.436,0.309,0.601c0.206,0.165,0.533,0.325,0.982,0.48l0.496,0.165
					c0.316,0.111,0.605,0.237,0.866,0.381c0.261,0.143,0.485,0.314,0.673,0.513c0.187,0.199,0.331,0.425,0.43,0.678
					c0.099,0.254,0.149,0.546,0.149,0.877c0,0.412-0.083,0.767-0.248,1.064c-0.165,0.298-0.377,0.542-0.634,0.734
					c-0.258,0.191-0.548,0.335-0.872,0.43C287.422,440.797,287.105,440.845,286.797,440.845z"/>
			</g>
			<g>
				<path style="fill:#FFFFFF;" d="M321.394,439.168l4.004-4.985h-3.827v-1.412h5.559v1.5l-3.96,4.985h4.004v1.412h-5.779V439.168z"
					/>
				<path style="fill:#FFFFFF;" d="M328.409,432.771h1.489v7.897h-1.489V432.771z"/>
				<path style="fill:#FFFFFF;" d="M331.486,440.669v-7.897h2.779c0.375,0,0.726,0.061,1.053,0.182
					c0.327,0.121,0.612,0.292,0.855,0.513s0.434,0.483,0.574,0.789c0.14,0.305,0.209,0.642,0.209,1.009
					c0,0.375-0.07,0.715-0.209,1.02c-0.14,0.305-0.331,0.568-0.574,0.789c-0.243,0.221-0.528,0.392-0.855,0.513
					c-0.327,0.121-0.678,0.182-1.053,0.182h-1.29v2.901H331.486z M334.288,436.356c0.389,0,0.684-0.111,0.882-0.331
					c0.199-0.22,0.298-0.474,0.298-0.761c0-0.14-0.024-0.276-0.072-0.408c-0.048-0.132-0.121-0.248-0.221-0.347
					c-0.099-0.099-0.222-0.178-0.37-0.237c-0.147-0.059-0.32-0.089-0.518-0.089h-1.312v2.173H334.288z"/>
			</g>
		</g>
		<g style="opacity:0.61;">
			<path style="fill:#FFFFFF;" d="M300.133,433.27h9.067v2.242h-9.067V433.27z M300.133,437.136h9.067v2.243h-9.067V437.136z"/>
		</g>
	</g>
	<g style="display:inline;opacity:0.61;">
		<path style="fill:#FFFFFF;" d="M156.756,478.878h1.607c1.263,0,2.114,0.812,2.114,1.974c0,1.161-0.851,1.973-2.114,1.973h-1.607
			V478.878z M158.34,482.464c1.049,0,1.725-0.665,1.725-1.612c0-0.947-0.677-1.613-1.725-1.613h-1.167v3.225H158.34z"/>
		<path style="fill:#FFFFFF;" d="M165.139,480.851c0-1.15,0.879-2.007,2.075-2.007c1.184,0,2.069,0.851,2.069,2.007
			c0,1.156-0.885,2.007-2.069,2.007C166.019,482.858,165.139,482.002,165.139,480.851z M168.866,480.851
			c0-0.942-0.705-1.635-1.652-1.635c-0.953,0-1.663,0.693-1.663,1.635c0,0.941,0.71,1.635,1.663,1.635
			C168.162,482.486,168.866,481.793,168.866,480.851z"/>
		<path style="fill:#FFFFFF;" d="M179.596,478.878l-1.331,3.947h-0.44l-1.156-3.366l-1.161,3.366h-0.434l-1.331-3.947h0.429
			l1.139,3.394l1.178-3.394h0.389l1.161,3.411l1.156-3.411H179.596z"/>
		<path style="fill:#FFFFFF;" d="M187.731,478.878v3.947h-0.344l-2.537-3.202v3.202h-0.417v-3.947h0.344l2.543,3.203v-3.203H187.731
			z"/>
		<path style="fill:#FFFFFF;" d="M193.093,478.878h0.417v3.586h2.21v0.361h-2.627V478.878z"/>
		<path style="fill:#FFFFFF;" d="M200.061,480.851c0-1.15,0.879-2.007,2.075-2.007c1.184,0,2.069,0.851,2.069,2.007
			c0,1.156-0.885,2.007-2.069,2.007C200.941,482.858,200.061,482.002,200.061,480.851z M203.788,480.851
			c0-0.942-0.705-1.635-1.652-1.635c-0.953,0-1.663,0.693-1.663,1.635c0,0.941,0.71,1.635,1.663,1.635
			C203.083,482.486,203.788,481.793,203.788,480.851z"/>
		<path style="fill:#FFFFFF;" d="M211.636,481.77h-2.199l-0.474,1.054h-0.434l1.804-3.947h0.412l1.804,3.947h-0.44L211.636,481.77z
			 M211.484,481.432l-0.947-2.12l-0.947,2.12H211.484z"/>
		<path style="fill:#FFFFFF;" d="M217.28,478.878h1.607c1.263,0,2.114,0.812,2.114,1.974c0,1.161-0.851,1.973-2.114,1.973h-1.607
			V478.878z M218.864,482.464c1.049,0,1.725-0.665,1.725-1.612c0-0.947-0.677-1.613-1.725-1.613h-1.167v3.225H218.864z"/>
		<path style="fill:#FFFFFF;" d="M234.041,481.77h-2.199l-0.474,1.054h-0.434l1.804-3.947h0.412l1.804,3.947h-0.44L234.041,481.77z
			 M233.889,481.432l-0.947-2.12l-0.947,2.12H233.889z"/>
		<path style="fill:#FFFFFF;" d="M239.685,478.878h0.417v3.586h2.21v0.361h-2.627V478.878z"/>
		<path style="fill:#FFFFFF;" d="M247.082,478.878h0.417v3.586h2.21v0.361h-2.627V478.878z"/>
		<path style="fill:#FFFFFF;" d="M260.449,479.239v1.551h2.041v0.361h-2.041v1.675h-0.417v-3.947h2.706v0.361H260.449z"/>
		<path style="fill:#FFFFFF;" d="M267.678,478.878h0.417v3.947h-0.417V478.878z"/>
		<path style="fill:#FFFFFF;" d="M273.456,478.878h0.417v3.586h2.21v0.361h-2.627V478.878z"/>
		<path style="fill:#FFFFFF;" d="M283.644,482.464v0.361h-2.791v-3.947h2.706v0.361h-2.289v1.404h2.041v0.355h-2.041v1.466H283.644z
			"/>
		<path style="fill:#FFFFFF;" d="M294.672,479.239v1.551h2.041v0.361h-2.041v1.675h-0.417v-3.947h2.706v0.361H294.672z"/>
		<path style="fill:#FFFFFF;" d="M301.5,480.851c0-1.15,0.879-2.007,2.075-2.007c1.184,0,2.069,0.851,2.069,2.007
			c0,1.156-0.885,2.007-2.069,2.007C302.379,482.858,301.5,482.002,301.5,480.851z M305.226,480.851
			c0-0.942-0.705-1.635-1.652-1.635c-0.953,0-1.663,0.693-1.663,1.635c0,0.941,0.71,1.635,1.663,1.635
			C304.522,482.486,305.226,481.793,305.226,480.851z"/>
		<path style="fill:#FFFFFF;" d="M313.351,482.825l-0.902-1.269c-0.102,0.011-0.203,0.017-0.316,0.017h-1.06v1.252h-0.417v-3.947
			h1.477c1.004,0,1.613,0.507,1.613,1.353c0,0.62-0.327,1.054-0.902,1.24l0.964,1.353H313.351z M313.328,480.231
			c0-0.632-0.417-0.992-1.207-0.992h-1.048v1.979h1.048C312.911,481.218,313.328,480.851,313.328,480.231z"/>
		<path style="fill:#FFFFFF;" d="M322.907,478.878v3.947h-0.4v-3.158l-1.551,2.656h-0.197l-1.551-2.639v3.14h-0.4v-3.947h0.344
			l1.714,2.926l1.697-2.926H322.907z"/>
		<path style="fill:#FFFFFF;" d="M330.744,481.77h-2.199l-0.473,1.054h-0.434l1.804-3.947h0.411l1.804,3.947h-0.44L330.744,481.77z
			 M330.592,481.432l-0.947-2.12l-0.947,2.12H330.592z"/>
		<path style="fill:#FFFFFF;" d="M336.957,479.239h-1.387v-0.361h3.192v0.361h-1.387v3.586h-0.417V479.239z"/>
		<path style="fill:#FFFFFF;" d="M343.063,482.346l0.164-0.321c0.282,0.276,0.784,0.479,1.302,0.479c0.739,0,1.06-0.31,1.06-0.699
			c0-1.083-2.43-0.417-2.43-1.877c0-0.581,0.451-1.083,1.455-1.083c0.446,0,0.908,0.13,1.224,0.35l-0.141,0.333
			c-0.338-0.22-0.733-0.327-1.083-0.327c-0.722,0-1.043,0.321-1.043,0.716c0,1.083,2.43,0.429,2.43,1.866
			c0,0.581-0.462,1.077-1.472,1.077C343.937,482.858,343.356,482.65,343.063,482.346z"/>
	</g>
</g>
<g>
</g>
<g>
	<g>
		<g>
			
				<linearGradient id="SVGID_1_" gradientUnits="userSpaceOnUse" x1="85.7227" y1="512.3047" x2="280.3351" y2="511.6666" gradientTransform="matrix(1 0 0 1 67.42 -368.87)">
				<stop  offset="0.05" style="stop-color:#536EFA"/>
				<stop  offset="0.28" style="stop-color:#5780FA"/>
				<stop  offset="0.5" style="stop-color:#5C94FB"/>
				<stop  offset="0.72" style="stop-color:#82AAFB"/>
				<stop  offset="0.95" style="stop-color:#B5C3FC"/>
			</linearGradient>
			<path style="fill:url(#SVGID_1_);" d="M231.287,158.834l1.068-1.068l-30.146-30.146l-1.068,1.068L231.287,158.834z"/>
			
				<linearGradient id="SVGID_00000092436629350761089390000008629449729601287608_" gradientUnits="userSpaceOnUse" x1="41.2795" y1="534.6673" x2="236.8416" y2="534.0292" gradientTransform="matrix(1 0 0 1 111.47 -325.41)">
				<stop  offset="0.05" style="stop-color:#536EFA"/>
				<stop  offset="0.28" style="stop-color:#5780FA"/>
				<stop  offset="0.5" style="stop-color:#5C94FB"/>
				<stop  offset="0.72" style="stop-color:#82AAFB"/>
				<stop  offset="0.95" style="stop-color:#B5C3FC"/>
			</linearGradient>
			<path style="fill:url(#SVGID_00000092436629350761089390000008629449729601287608_);" d="M268.705,193.224l-1.068,1.068
				l30.146,30.146l1.068-1.068L268.705,193.224z"/>
		</g>
		
			<linearGradient id="SVGID_00000130638799377861940040000010266322078013072263_" gradientUnits="userSpaceOnUse" x1="63.1091" y1="523.1652" x2="258.1816" y2="523.1652" gradientTransform="matrix(1 0 0 1 89.44 -347.14)">
			<stop  offset="0.05" style="stop-color:#536EFA"/>
			<stop  offset="0.28" style="stop-color:#5780FA"/>
			<stop  offset="0.5" style="stop-color:#5C94FB"/>
			<stop  offset="0.72" style="stop-color:#82AAFB"/>
			<stop  offset="0.95" style="stop-color:#B5C3FC"/>
		</linearGradient>
		<path style="fill:url(#SVGID_00000130638799377861940040000010266322078013072263_);" d="M250,107.341
			c-37.937,0-68.685,30.755-68.685,68.685S212.07,244.71,250,244.71s68.685-30.755,68.685-68.685S287.93,107.341,250,107.341
			L250,107.341z M250,243.203c-37.099,0-67.171-30.072-67.171-67.171s30.072-67.171,67.171-67.171s67.171,30.072,67.171,67.171
			S287.099,243.203,250,243.203z"/>
		
			<linearGradient id="SVGID_00000084507800228597732010000008526324455106302641_" gradientUnits="userSpaceOnUse" x1="31.5765" y1="523.5811" x2="226.8642" y2="523.032" gradientTransform="matrix(1 0 0 1 121.44 -347.14)">
			<stop  offset="0.05" style="stop-color:#536EFA"/>
			<stop  offset="0.28" style="stop-color:#5780FA"/>
			<stop  offset="0.5" style="stop-color:#5C94FB"/>
			<stop  offset="0.72" style="stop-color:#82AAFB"/>
			<stop  offset="0.95" style="stop-color:#B5C3FC"/>
		</linearGradient>
		<path style="fill:url(#SVGID_00000084507800228597732010000008526324455106302641_);" d="M297.553,249.243h1.506V102.822h-1.506
			V249.243L297.553,249.243z"/>
		
			<linearGradient id="SVGID_00000012434680715876382730000010194230172662333875_" gradientUnits="userSpaceOnUse" x1="94.2113" y1="523.1725" x2="290.3968" y2="523.1725" gradientTransform="matrix(1 0 0 1 57.44 -347.14)">
			<stop  offset="0.05" style="stop-color:#536EFA"/>
			<stop  offset="0.28" style="stop-color:#5780FA"/>
			<stop  offset="0.5" style="stop-color:#5C94FB"/>
			<stop  offset="0.72" style="stop-color:#82AAFB"/>
			<stop  offset="0.95" style="stop-color:#B5C3FC"/>
		</linearGradient>
		<path style="fill:url(#SVGID_00000012434680715876382730000010194230172662333875_);" d="M200.941,249.243h1.506V102.822h-1.506
			V249.243L200.941,249.243z"/>
		
			<linearGradient id="SVGID_00000163048014020643058110000012793383498855141015_" gradientUnits="userSpaceOnUse" x1="63.8659" y1="539.7963" x2="258.1816" y2="539.1582" gradientTransform="matrix(1 0 0 1 89.44 -315.14)">
			<stop  offset="0.05" style="stop-color:#536EFA"/>
			<stop  offset="0.28" style="stop-color:#5780FA"/>
			<stop  offset="0.5" style="stop-color:#5C94FB"/>
			<stop  offset="0.72" style="stop-color:#82AAFB"/>
			<stop  offset="0.95" style="stop-color:#B5C3FC"/>
		</linearGradient>
		<path style="fill:url(#SVGID_00000163048014020643058110000012793383498855141015_);" d="M176.789,225.092h146.421v-1.506H176.789
			V225.092z"/>
		<g>
			
				<linearGradient id="SVGID_00000176724573319883036340000007430165954758736048_" gradientUnits="userSpaceOnUse" x1="63.8659" y1="547.9256" x2="258.1816" y2="547.2801" gradientTransform="matrix(1 0 0 1 89.44 -299.17)">
				<stop  offset="0.05" style="stop-color:#536EFA"/>
				<stop  offset="0.28" style="stop-color:#5780FA"/>
				<stop  offset="0.5" style="stop-color:#5C94FB"/>
				<stop  offset="0.72" style="stop-color:#82AAFB"/>
				<stop  offset="0.95" style="stop-color:#B5C3FC"/>
			</linearGradient>
			<path style="fill:url(#SVGID_00000176724573319883036340000007430165954758736048_);" d="M249.243,273.394h1.506v-49.92h-1.506
				V273.394z"/>
			
				<linearGradient id="SVGID_00000040560372958095068700000016267688141743855293_" gradientUnits="userSpaceOnUse" x1="63.8659" y1="499.0445" x2="258.1816" y2="498.399" gradientTransform="matrix(1 0 0 1 89.44 -395.1)">
				<stop  offset="0.05" style="stop-color:#536EFA"/>
				<stop  offset="0.28" style="stop-color:#5780FA"/>
				<stop  offset="0.5" style="stop-color:#5C94FB"/>
				<stop  offset="0.72" style="stop-color:#82AAFB"/>
				<stop  offset="0.95" style="stop-color:#B5C3FC"/>
			</linearGradient>
			<path style="fill:url(#SVGID_00000040560372958095068700000016267688141743855293_);" d="M249.243,128.583h1.506v-49.92h-1.506
				V128.583z"/>
		</g>
		
			<linearGradient id="SVGID_00000055688703743136384490000017548917862579501696_" gradientUnits="userSpaceOnUse" x1="63.8659" y1="507.1838" x2="258.1816" y2="506.5458" gradientTransform="matrix(1 0 0 1 89.44 -379.14)">
			<stop  offset="0.05" style="stop-color:#536EFA"/>
			<stop  offset="0.28" style="stop-color:#5780FA"/>
			<stop  offset="0.5" style="stop-color:#5C94FB"/>
			<stop  offset="0.72" style="stop-color:#82AAFB"/>
			<stop  offset="0.95" style="stop-color:#B5C3FC"/>
		</linearGradient>
		<path style="fill:url(#SVGID_00000055688703743136384490000017548917862579501696_);" d="M176.789,128.479h146.421v-1.506H176.789
			V128.479z"/>
		<g>
			
				<linearGradient id="SVGID_00000133493983725645566040000001163453342598239932_" gradientUnits="userSpaceOnUse" x1="39.4269" y1="523.449" x2="234.0542" y2="522.9" gradientTransform="matrix(1 0 0 1 41.44 -347.14)">
				<stop  offset="0.05" style="stop-color:#536EFA"/>
				<stop  offset="0.28" style="stop-color:#5780FA"/>
				<stop  offset="0.5" style="stop-color:#5C94FB"/>
				<stop  offset="0.72" style="stop-color:#82AAFB"/>
				<stop  offset="0.95" style="stop-color:#B5C3FC"/>
			</linearGradient>
			<path style="fill:url(#SVGID_00000133493983725645566040000001163453342598239932_);" d="M152.638,176.789h49.816v-1.506h-49.816
				L152.638,176.789L152.638,176.789z"/>
			
				<linearGradient id="SVGID_00000031912769046491966750000004949215918901376959_" gradientUnits="userSpaceOnUse" x1="15.072" y1="523.6603" x2="210.4783" y2="523.1038" gradientTransform="matrix(1 0 0 1 137.44 -347.14)">
				<stop  offset="0.05" style="stop-color:#536EFA"/>
				<stop  offset="0.28" style="stop-color:#5780FA"/>
				<stop  offset="0.5" style="stop-color:#5C94FB"/>
				<stop  offset="0.72" style="stop-color:#82AAFB"/>
				<stop  offset="0.95" style="stop-color:#B5C3FC"/>
			</linearGradient>
			<path style="fill:url(#SVGID_00000031912769046491966750000004949215918901376959_);" d="M297.553,176.789h49.809v-1.506h-49.809
				L297.553,176.789L297.553,176.789z"/>
		</g>
		
			<linearGradient id="SVGID_00000167386856810123452020000013441378386690472351_" gradientUnits="userSpaceOnUse" x1="40.6771" y1="485.3119" x2="230.3109" y2="545.0928" gradientTransform="matrix(1 0 0 1 89.39 -347.29)">
			<stop  offset="0.05" style="stop-color:#536EFA"/>
			<stop  offset="0.28" style="stop-color:#5780FA"/>
			<stop  offset="0.5" style="stop-color:#5C94FB"/>
			<stop  offset="0.72" style="stop-color:#82AAFB"/>
			<stop  offset="0.95" style="stop-color:#B5C3FC"/>
		</linearGradient>
		<path style="fill:url(#SVGID_00000167386856810123452020000013441378386690472351_);" d="M317.253,175.795
			c-3.443-0.193-6.633-0.415-9.052-0.735v-0.022c-3.116-0.46-6.158-1.128-9.134-2.003c0,0-0.415-0.126-0.809-0.245
			c-0.356-0.111-0.697-0.215-0.697-0.215c-1.914-0.616-3.799-1.313-5.654-2.1c-8.355-3.665-15.626-8.585-21.807-14.765
			c-6.181-6.181-11.1-13.452-14.765-21.807c-0.786-1.855-1.491-3.74-2.1-5.654l-0.46-1.506c-0.876-2.975-1.543-6.025-2.003-9.134
			h-0.082c-0.326-2.441-0.556-5.661-0.749-9.126c-0.193,3.376-0.438,6.522-0.779,9.23h0.052c-0.475,3.072-1.15,6.092-2.04,9.037
			l-0.475,1.506c-0.631,1.914-1.358,3.799-2.167,5.654c-3.487,8.214-8.251,15.381-14.283,21.495l-1.068,1.061
			c-6.017,5.832-13.029,10.499-21.042,14.016c-1.855,0.786-3.74,1.491-5.654,2.1l-1.506,0.46c-2.975,0.876-6.025,1.543-9.134,2.003
			l-0.082,0.757l0.082-0.757c-2.441,0.334-5.713,0.564-9.223,0.757c3.354,0.193,6.477,0.438,9.171,0.772
			c3.532,0.534,6.975,1.343,10.336,2.434c2.033,0.66,4.036,1.425,6.01,2.285c8.355,3.547,15.626,8.414,21.807,14.595
			c6.181,6.181,11.048,13.452,14.595,21.807c0.816,1.855,1.536,3.74,2.167,5.654l0.475,1.506c0.898,2.953,1.573,5.973,2.048,9.067
			h-0.052c0.334,2.701,0.579,5.847,0.779,9.223c0.193-3.48,0.415-6.715,0.749-9.141h0.082c0.46-3.124,1.128-6.166,2.003-9.141
			l0.46-1.506c0.616-1.914,1.313-3.799,2.1-5.654c3.517-8.013,8.184-15.032,14.016-21.042l1.061-1.076
			c6.114-6.032,13.281-10.796,21.495-14.283c1.855-0.816,3.74-1.536,5.654-2.167l1.506-0.482c3.027-0.92,6.129-1.617,9.297-2.092
			v-0.015c2.634-0.319,5.654-0.549,8.896-0.742L317.253,175.795z M265.819,191.851c-6.663,6.663-11.968,14.476-15.908,23.372
			c-3.829-8.896-9.074-16.709-15.737-23.372c-6.663-6.663-14.476-11.909-23.372-15.737c8.896-3.94,16.709-9.238,23.372-15.9
			c6.663-6.663,11.909-14.476,15.737-23.372c3.94,8.896,9.238,16.709,15.908,23.372c6.663,6.663,14.476,11.968,23.372,15.9
			C280.295,179.943,272.482,185.189,265.819,191.851z"/>
		
			<linearGradient id="SVGID_00000070087594361408633320000010432786502429219758_" gradientUnits="userSpaceOnUse" x1="30.5789" y1="467.4375" x2="111.417" y2="502.058" gradientTransform="matrix(1 0 0 1 89.39 -347.29)">
			<stop  offset="0" style="stop-color:#E2E5F6;stop-opacity:0"/>
			<stop  offset="0.25" style="stop-color:#CBD4F9;stop-opacity:0.5"/>
			<stop  offset="0.5" style="stop-color:#B5C3FC"/>
			<stop  offset="0.75" style="stop-color:#B5C3FC;stop-opacity:0.5"/>
			<stop  offset="1" style="stop-color:#B5C3FC;stop-opacity:0"/>
		</linearGradient>
		<path style="fill:url(#SVGID_00000070087594361408633320000010432786502429219758_);" d="M317.253,175.795
			c-3.443-0.193-6.633-0.415-9.052-0.735v-0.022c-3.116-0.46-6.158-1.128-9.134-2.003c0,0-0.415-0.126-0.809-0.245
			c-0.356-0.111-0.697-0.215-0.697-0.215c-1.914-0.616-3.799-1.313-5.654-2.1c-8.355-3.665-15.626-8.585-21.807-14.765
			c-6.181-6.181-11.1-13.452-14.765-21.807c-0.786-1.855-1.491-3.74-2.1-5.654l-0.46-1.506c-0.876-2.975-1.543-6.025-2.003-9.134
			h-0.082c-0.326-2.441-0.556-5.661-0.749-9.126c-0.193,3.376-0.438,6.522-0.779,9.23h0.052c-0.475,3.072-1.15,6.092-2.04,9.037
			l-0.475,1.506c-0.631,1.914-1.358,3.799-2.167,5.654c-3.487,8.214-8.251,15.381-14.283,21.495l-1.068,1.061
			c-6.017,5.832-13.029,10.499-21.042,14.016c-1.855,0.786-3.74,1.491-5.654,2.1l-1.506,0.46c-2.975,0.876-6.025,1.543-9.134,2.003
			l-0.082,0.757l0.082-0.757c-2.441,0.334-5.713,0.564-9.223,0.757c3.354,0.193,6.477,0.438,9.171,0.772
			c3.532,0.534,6.975,1.343,10.336,2.434c2.033,0.66,4.036,1.425,6.01,2.285c8.355,3.547,15.626,8.414,21.807,14.595
			c6.181,6.181,11.048,13.452,14.595,21.807c0.816,1.855,1.536,3.74,2.167,5.654l0.475,1.506c0.898,2.953,1.573,5.973,2.048,9.067
			h-0.052c0.334,2.701,0.579,5.847,0.779,9.223c0.193-3.48,0.415-6.715,0.749-9.141h0.082c0.46-3.124,1.128-6.166,2.003-9.141
			l0.46-1.506c0.616-1.914,1.313-3.799,2.1-5.654c3.517-8.013,8.184-15.032,14.016-21.042l1.061-1.076
			c6.114-6.032,13.281-10.796,21.495-14.283c1.855-0.816,3.74-1.536,5.654-2.167l1.506-0.482c3.027-0.92,6.129-1.617,9.297-2.092
			v-0.015c2.634-0.319,5.654-0.549,8.896-0.742L317.253,175.795z M265.819,191.851c-6.663,6.663-11.968,14.476-15.908,23.372
			c-3.829-8.896-9.074-16.709-15.737-23.372c-6.663-6.663-14.476-11.909-23.372-15.737c8.896-3.94,16.709-9.238,23.372-15.9
			c6.663-6.663,11.909-14.476,15.737-23.372c3.94,8.896,9.238,16.709,15.908,23.372c6.663,6.663,14.476,11.968,23.372,15.9
			C280.295,179.943,272.482,185.189,265.819,191.851z"/>
		
			<linearGradient id="SVGID_00000004527103839240597680000010954634428858602664_" gradientUnits="userSpaceOnUse" x1="211.4596" y1="523.8618" x2="311.2032" y2="525.2271" gradientTransform="matrix(1 0 0 1 89.44 -347.14)">
			<stop  offset="0" style="stop-color:#E2E5F6;stop-opacity:0"/>
			<stop  offset="0.25" style="stop-color:#CBD4F9;stop-opacity:0.5"/>
			<stop  offset="0.5" style="stop-color:#B5C3FC"/>
			<stop  offset="0.75" style="stop-color:#B5C3FC;stop-opacity:0.5"/>
			<stop  offset="1" style="stop-color:#B5C3FC;stop-opacity:0"/>
		</linearGradient>
		<path style="fill:url(#SVGID_00000004527103839240597680000010954634428858602664_);" d="M250,107.341
			c-37.937,0-68.685,30.755-68.685,68.685S212.07,244.71,250,244.71s68.685-30.755,68.685-68.685S287.93,107.341,250,107.341
			L250,107.341z M250,243.203c-37.099,0-67.171-30.072-67.171-67.171s30.072-67.171,67.171-67.171s67.171,30.072,67.171,67.171
			S287.099,243.203,250,243.203z"/>
	</g>
	<g>
		<path style="fill:#6F96F3;" d="M49.96,414.711c-7.65-4.407-13.719-10.477-18.215-18.215C27.248,388.764,25,380.216,25,370.86
			c0-9.356,2.248-17.896,6.745-25.635S42.31,331.417,49.96,327.01c7.642-4.407,16.012-6.611,25.101-6.611
			c7.108,0,13.786,1.261,20.041,3.777c6.255,2.523,11.404,6.069,15.448,10.662l-8.228,8.228c-3.057-3.777-6.975-6.678-11.738-8.703
			c-4.771-2.026-9.898-3.035-15.381-3.035c-6.834,0-13.2,1.64-19.091,4.927c-5.891,3.287-10.618,7.917-14.172,13.897
			c-3.554,5.98-5.327,12.888-5.327,20.708s1.773,14.736,5.327,20.716c3.554,5.98,8.295,10.618,14.238,13.897
			c5.936,3.287,12.28,4.927,19.024,4.927c6.745,0,11.894-1.009,16.257-3.035c4.363-2.026,8.117-4.697,11.271-8.028
			c2.337-2.515,4.229-5.55,5.669-9.104c1.439-3.554,2.337-7.487,2.701-11.805H75.343v-10.662h46.418
			c0.453,2.523,0.675,4.86,0.675,7.019c0,5.936-0.942,11.716-2.834,17.34s-4.904,10.551-9.045,14.773
			c-8.904,9.631-20.738,14.439-35.489,14.439c-9.089,0-17.451-2.204-25.101-6.611L49.96,414.711z"/>
		<path style="fill:#6F96F3;" d="M142.254,416.595c-5.216-3.146-9.29-7.487-12.213-13.022c-2.923-5.535-4.385-11.76-4.385-18.69
			c0-6.93,1.373-12.769,4.118-18.349s6.633-10.031,11.671-13.356c5.038-3.324,10.885-4.993,17.54-4.993s12.591,1.506,17.54,4.519
			c4.949,3.012,8.748,7.175,11.404,12.48c2.656,5.305,3.984,11.382,3.984,18.215c0,1.35-0.134,2.523-0.408,3.51h-54.379
			c0.267,5.216,1.528,9.631,3.777,13.222c2.248,3.599,5.105,6.299,8.57,8.095c3.465,1.803,7.086,2.701,10.863,2.701
			c8.815,0,15.604-4.133,20.375-12.413l9.712,4.726c-2.968,5.58-6.997,9.987-12.079,13.222c-5.083,3.235-11.226,4.86-18.416,4.86
			C153.362,421.322,147.47,419.749,142.254,416.595L142.254,416.595z M179.768,377.471c-0.178-2.879-0.994-5.758-2.426-8.637
			c-1.439-2.879-3.71-5.305-6.811-7.286c-3.101-1.981-6.997-2.968-11.671-2.968c-5.394,0-9.965,1.729-13.697,5.194
			c-3.732,3.465-6.188,8.028-7.353,13.697h41.966L179.768,377.471z"/>
		<path style="fill:#6F96F3;" d="M198.117,350.345h10.929v10.121h0.542c1.981-3.51,4.949-6.433,8.904-8.77s8.139-3.51,12.547-3.51
			c5.038,0,9.423,1.217,13.155,3.643c3.732,2.426,6.411,5.669,8.028,9.712c2.426-4.051,5.646-7.286,9.646-9.712
			c3.999-2.426,8.659-3.643,13.964-3.643c7.917,0,13.875,2.404,17.882,7.219c3.999,4.815,6.003,11.36,6.003,19.633v44.125h-11.337
			v-42.367c0-6.388-1.306-11.018-3.91-13.897c-2.612-2.879-6.477-4.318-11.604-4.318c-3.421,0-6.522,0.994-9.312,2.968
			c-2.79,1.981-4.971,4.63-6.544,7.961c-1.573,3.331-2.359,6.93-2.359,10.796v38.865h-11.471v-42.233
			c0-6.477-1.306-11.152-3.91-14.031c-2.612-2.879-6.433-4.318-11.471-4.318c-3.42,0-6.522,1.009-9.312,3.035
			c-2.79,2.026-4.971,4.726-6.544,8.095c-1.573,3.376-2.359,6.997-2.359,10.862v38.59H198.11v-68.818L198.117,350.345z"/>
		<path style="fill:#6F96F3;" d="M309.035,350.345h10.929v10.121h0.542c1.981-3.51,4.949-6.433,8.904-8.77s8.139-3.51,12.547-3.51
			c5.038,0,9.423,1.217,13.155,3.643c3.732,2.426,6.411,5.669,8.028,9.712c2.426-4.051,5.646-7.286,9.646-9.712
			c3.999-2.426,8.659-3.643,13.964-3.643c7.917,0,13.875,2.404,17.882,7.219c3.999,4.815,6.003,11.36,6.003,19.633v44.125h-11.337
			v-42.367c0-6.388-1.306-11.018-3.91-13.897c-2.612-2.879-6.477-4.318-11.604-4.318c-3.421,0-6.522,0.994-9.312,2.968
			c-2.79,1.981-4.971,4.63-6.544,7.961c-1.573,3.331-2.359,6.93-2.359,10.796v38.865h-11.471v-42.233
			c0-6.477-1.306-11.152-3.91-14.031c-2.612-2.879-6.433-4.318-11.471-4.318c-3.421,0-6.522,1.009-9.312,3.035
			c-2.79,2.026-4.971,4.726-6.544,8.095c-1.573,3.376-2.359,6.997-2.359,10.862v38.59h-11.471v-68.818L309.035,350.345z"/>
		<path style="fill:#6F96F3;" d="M427.781,418.354c-3.962-1.981-7.019-4.697-9.178-8.162c-2.159-3.465-3.235-7.397-3.235-11.805
			c0-7.286,2.745-12.977,8.229-17.073c5.483-4.096,12.413-6.136,20.783-6.136c4.133,0,7.984,0.453,11.538,1.35
			s6.277,1.937,8.162,3.101v-4.185c0-5.127-1.803-9.245-5.394-12.346c-3.599-3.101-8.147-4.652-13.63-4.652
			c-3.873,0-7.42,0.831-10.662,2.5c-3.235,1.669-5.802,3.977-7.694,6.952l-8.637-6.477c2.701-4.133,6.411-7.375,11.13-9.712
			c4.719-2.337,9.957-3.51,15.722-3.51c9.356,0,16.709,2.449,22.059,7.353c5.35,4.904,8.028,11.582,8.028,20.041v43.584h-10.929
			v-9.853h-0.542c-1.981,3.331-4.949,6.166-8.904,8.503c-3.962,2.337-8.414,3.51-13.356,3.51s-9.534-0.994-13.496-2.968
			L427.781,418.354z M453.149,408.233c3.324-1.981,5.98-4.63,7.961-7.961c1.974-3.324,2.968-6.967,2.968-10.929
			c-2.159-1.439-4.815-2.604-7.961-3.51c-3.153-0.898-6.477-1.35-9.987-1.35c-6.299,0-11.041,1.306-14.238,3.91
			c-3.198,2.612-4.793,5.98-4.793,10.121c0,3.777,1.439,6.834,4.318,9.178c2.879,2.337,6.522,3.51,10.929,3.51
			c3.866,0,7.464-0.987,10.796-2.968L453.149,408.233z"/>
	</g>
</g>
</svg>
